<svg width="25" height="24" viewBox="0 0 25 24" fill="none" xmlns="http://www.w3.org/2000/svg">
<path d="M3.5 9H21.5" stroke="#9927FF" stroke-width="1.5"/>
<path d="M10.07 13H7.5" stroke="#9927FF" stroke-width="1.5" stroke-linecap="round" stroke-linejoin="round"/>
<path d="M18.5 19H6.5C5.70435 19 4.94129 18.6839 4.37868 18.1213C3.81607 17.5587 3.5 16.7956 3.5 16V8C3.5 7.20435 3.81607 6.44129 4.37868 5.87868C4.94129 5.31607 5.70435 5 6.5 5H18.5C19.2956 5 20.0587 5.31607 20.6213 5.87868C21.1839 6.44129 21.5 7.20435 21.5 8V16C21.5 16.7956 21.1839 17.5587 20.6213 18.1213C20.0587 18.6839 19.2956 19 18.5 19Z" stroke="#9927FF" stroke-width="1.5"/>
</svg>
