<svg width="40" height="40" viewBox="0 0 40 40" fill="none" xmlns="http://www.w3.org/2000/svg">
<g clip-path="url(#clip0_143_36)">
<path opacity="0.2" d="M20 40C31.0457 40 40 31.0457 40 20C40 8.9543 31.0457 0 20 0C8.9543 0 0 8.9543 0 20C0 31.0457 8.9543 40 20 40Z" fill="#9927FF"/>
<path opacity="0.7" d="M19.994 28.889C24.9032 28.889 28.883 24.9092 28.883 20C28.883 15.0907 24.9032 11.111 19.994 11.111C15.0847 11.111 11.105 15.0907 11.105 20C11.105 24.9092 15.0847 28.889 19.994 28.889Z" fill="#9927FF"/>
<path opacity="0.3" d="M34.447 20C34.447 27.977 27.98 34.444 20.003 34.444C12.026 34.444 5.55896 27.977 5.55896 20C5.55896 12.023 12.026 5.55603 20.003 5.55603C27.98 5.55603 34.447 12.023 34.447 20Z" fill="#9927FF"/>
</g>
<defs>
<clipPath id="clip0_143_36">
<rect width="40" height="40" fill="white"/>
</clipPath>
</defs>
</svg>
