<svg width="30" height="26" viewBox="0 0 30 26" fill="none" xmlns="http://www.w3.org/2000/svg">
<path d="M24.334 3.66699H25.667C26.0172 3.66686 26.364 3.73572 26.6875 3.86964C27.0111 4.00356 27.3051 4.19992 27.5528 4.44749C27.8005 4.69507 27.9969 4.98901 28.131 5.31253C28.265 5.63605 28.334 5.9828 28.334 6.33299V22.333C28.3341 22.6833 28.2652 23.0301 28.1312 23.3538C27.9973 23.6774 27.8008 23.9715 27.5531 24.2191C27.3055 24.4668 27.0114 24.6633 26.6878 24.7972C26.3641 24.9312 26.0173 25.0001 25.667 25H4.33399C3.98372 25.0001 3.63685 24.9312 3.31322 24.7972C2.98959 24.6633 2.69553 24.4668 2.44785 24.2191C2.20017 23.9715 2.00372 23.6774 1.86974 23.3538C1.73576 23.0301 1.66686 22.6833 1.66699 22.333V6.33299C1.66699 5.9828 1.73598 5.63605 1.87003 5.31253C2.00407 4.98901 2.20053 4.69507 2.4482 4.44749C2.69587 4.19992 2.98988 4.00356 3.31345 3.86964C3.63702 3.73572 3.9838 3.66686 4.33399 3.66699H5.66699" stroke="#6637A4" stroke-width="1.5" stroke-linecap="round" stroke-linejoin="round"/>
<path d="M15 5C15 3.93913 14.5786 2.92172 13.8284 2.17157C13.0783 1.42143 12.0609 1 11 1H6.99999C6.26399 1 5.66699 1.597 5.66699 2.333V19.667C5.66699 20.403 6.26399 21 6.99999 21H11C12.0609 21 13.0783 21.4214 13.8284 22.1716C14.5786 22.9217 15 23.9391 15 25C15 23.9391 15.4214 22.9217 16.1716 22.1716C16.9217 21.4214 17.9391 21 19 21H23C23.736 21 24.334 20.403 24.334 19.667V2.333C24.334 1.597 23.736 1 23 1H19C17.9391 1 16.9217 1.42143 16.1716 2.17157C15.4214 2.92172 15 3.93913 15 5V5Z" stroke="#7601E0" stroke-width="1.5" stroke-linecap="round" stroke-linejoin="round"/>
<path d="M15 5V25" stroke="#7601E0" stroke-width="1.5" stroke-linecap="round" stroke-linejoin="round"/>
</svg>
