<svg width="32" height="32" viewBox="0 0 32 32" fill="none" xmlns="http://www.w3.org/2000/svg">
<path d="M14.814 12.077L19.99 15.139C20.1394 15.2274 20.2632 15.3533 20.3493 15.5042C20.4353 15.6551 20.4805 15.8258 20.4805 15.9995C20.4805 16.1731 20.4353 16.3438 20.3493 16.4947C20.2632 16.6456 20.1394 16.7715 19.99 16.86L14.814 19.921C14.6621 20.011 14.489 20.0593 14.3124 20.0608C14.1359 20.0622 13.962 20.017 13.8086 19.9295C13.6552 19.842 13.5277 19.7155 13.4391 19.5628C13.3504 19.41 13.3038 19.2365 13.304 19.06V12.939C13.3036 12.7623 13.3501 12.5887 13.4387 12.4358C13.5273 12.2829 13.6548 12.1563 13.8082 12.0687C13.9616 11.9811 14.1355 11.9357 14.3122 11.9372C14.4889 11.9386 14.662 11.9869 14.814 12.077ZM14.814 12.077V12.077V12.077Z" stroke="#7601E0" stroke-width="2" stroke-linecap="round" stroke-linejoin="round"/>
<path d="M16 26.667C9.40997 26.667 4.21497 20.689 5.54097 13.86C6.34897 9.70097 9.70097 6.34997 13.86 5.54097C20.69 4.21497 26.666 9.40997 26.666 16" stroke="#7601E0" stroke-width="2" stroke-linecap="round" stroke-linejoin="round"/>
<path d="M24 21.333V26.667M26.666 24H21.333" stroke="#7601E0" stroke-width="2" stroke-linecap="round" stroke-linejoin="round"/>
</svg>
