<svg width="26" height="26" viewBox="0 0 26 26" fill="none" xmlns="http://www.w3.org/2000/svg">
<path d="M22.333 25H3.667C3.31673 25.0001 2.96986 24.9312 2.64623 24.7973C2.32259 24.6633 2.02853 24.4668 1.78085 24.2191C1.53317 23.9715 1.33673 23.6774 1.20275 23.3538C1.06876 23.0301 0.999869 22.6833 1 22.333V3.667C0.999869 3.31673 1.06876 2.96986 1.20275 2.64623C1.33673 2.32259 1.53317 2.02853 1.78085 1.78085C2.02853 1.53317 2.32259 1.33673 2.64623 1.20275C2.96986 1.06876 3.31673 0.999869 3.667 1H22.333C22.6833 0.999869 23.0301 1.06876 23.3538 1.20275C23.6774 1.33673 23.9715 1.53317 24.2191 1.78085C24.4668 2.02853 24.6633 2.32259 24.7973 2.64623C24.9312 2.96986 25.0001 3.31673 25 3.667V22.333C25.0001 22.6833 24.9312 23.0301 24.7973 23.3538C24.6633 23.6774 24.4668 23.9715 24.2191 24.2191C23.9715 24.4668 23.6774 24.6633 23.3538 24.7973C23.0301 24.9312 22.6833 25.0001 22.333 25V25Z" stroke="#9927FF" stroke-width="1.5" stroke-linecap="round" stroke-linejoin="round"/>
<path d="M13 14.667V14.333C13 13.244 13.673 12.653 14.348 12.2C15.006 11.756 15.666 11.177 15.666 10.11C15.666 9.40278 15.3851 8.72455 14.885 8.22448C14.3849 7.72442 13.7067 7.44348 12.9995 7.44348C12.2923 7.44348 11.6141 7.72442 11.114 8.22448C10.6139 8.72455 10.333 9.40278 10.333 10.11" stroke="#9927FF" stroke-width="1.5" stroke-linecap="round" stroke-linejoin="round"/>
<path d="M12.998 18.333C12.9543 18.3332 12.911 18.342 12.8707 18.3589C12.8304 18.3759 12.7938 18.4005 12.763 18.4316C12.7322 18.4627 12.7078 18.4995 12.6913 18.54C12.6747 18.5804 12.6663 18.6238 12.6665 18.6675C12.6667 18.7112 12.6755 18.7545 12.6924 18.7948C12.7093 18.8352 12.734 18.8718 12.7651 18.9025C12.7962 18.9333 12.833 18.9577 12.8735 18.9742C12.9139 18.9908 12.9573 18.9992 13.001 18.999C13.0893 18.9986 13.1739 18.9631 13.236 18.9004C13.2982 18.8377 13.3329 18.7528 13.3325 18.6645C13.3321 18.5762 13.2966 18.4917 13.2339 18.4295C13.1712 18.3673 13.0863 18.3326 12.998 18.333" stroke="#9927FF" stroke-width="1.5" stroke-linecap="round" stroke-linejoin="round"/>
</svg>
