<svg width="32" height="32" viewBox="0 0 32 32" fill="none" xmlns="http://www.w3.org/2000/svg">
<path d="M26.607 5.39299C32.464 11.251 32.464 20.749 26.607 26.607C20.749 32.464 11.251 32.464 5.39299 26.607C-0.464006 20.749 -0.464006 11.251 5.39299 5.39299C11.251 -0.464006 20.749 -0.464006 26.607 5.39299Z" stroke="#9927FF" stroke-width="1.5" stroke-linecap="round" stroke-linejoin="round"/>
<path d="M19.315 9.873C20.1942 10.7522 20.6882 11.9446 20.6882 13.188C20.6882 14.4314 20.1942 15.6238 19.315 16.503C18.4358 17.3822 17.2434 17.8761 16 17.8761C14.7567 17.8761 13.5642 17.3822 12.685 16.503C11.8058 15.6238 11.3119 14.4314 11.3119 13.188C11.3119 12.5723 11.4332 11.9627 11.6688 11.3939C11.9044 10.8251 12.2497 10.3083 12.685 9.873C13.1204 9.43766 13.6372 9.09234 14.206 8.85674C14.7748 8.62114 15.3844 8.49988 16 8.49988C17.2434 8.49988 18.4358 8.9938 19.315 9.873M25.512 27.597C24.289 26.3025 22.8144 25.2714 21.1788 24.5669C19.5432 23.8624 17.7809 23.4994 16 23.5C12.253 23.5 8.88004 25.078 6.48804 27.598" stroke="#7601E0" stroke-width="1.5" stroke-linecap="round" stroke-linejoin="round"/>
</svg>
