<svg width="26" height="27" viewBox="0 0 26 27" fill="none" xmlns="http://www.w3.org/2000/svg">
<path d="M15.667 22.667H22.333C22.6833 22.6671 23.0301 22.5982 23.3538 22.4643C23.6774 22.3303 23.9715 22.1338 24.2191 21.8862C24.4668 21.6385 24.6633 21.3444 24.7973 21.0208C24.9312 20.6971 25.0001 20.3503 25 20V4.00001C25.0001 3.64974 24.9312 3.30287 24.7973 2.97924C24.6633 2.6556 24.4668 2.36154 24.2191 2.11386C23.9715 1.86618 23.6774 1.66974 23.3538 1.53575C23.0301 1.40177 22.6833 1.33288 22.333 1.33301H3.667C3.31673 1.33288 2.96986 1.40177 2.64623 1.53575C2.32259 1.66974 2.02853 1.86618 1.78085 2.11386C1.53317 2.36154 1.33673 2.6556 1.20275 2.97924C1.06876 3.30287 0.999869 3.64974 1 4.00001V20C0.999869 20.3503 1.06876 20.6971 1.20275 21.0208C1.33673 21.3444 1.53317 21.6385 1.78085 21.8862C2.02853 22.1338 2.32259 22.3303 2.64623 22.4643C2.96986 22.5982 3.31673 22.6671 3.667 22.667H10.333L13 25.333L15.667 22.667V22.667Z" stroke="#9927FF" stroke-width="1.5" stroke-linecap="round" stroke-linejoin="round"/>
<path d="M13.236 11.764C13.267 11.795 13.2916 11.8317 13.3084 11.8721C13.3252 11.9126 13.3339 11.9559 13.3339 11.9997C13.334 12.0435 13.3254 12.0868 13.3087 12.1273C13.292 12.1678 13.2675 12.2045 13.2365 12.2355C13.2056 12.2665 13.1689 12.2911 13.1284 12.3079C13.088 12.3247 13.0447 12.3334 13.0009 12.3334C12.9571 12.3335 12.9137 12.3249 12.8733 12.3082C12.8328 12.2915 12.796 12.267 12.765 12.236C12.734 12.2052 12.7094 12.1685 12.6926 12.1281C12.6758 12.0878 12.6671 12.0445 12.667 12.0007C12.6669 11.957 12.6754 11.9137 12.6921 11.8732C12.7087 11.8328 12.7332 11.796 12.764 11.765C12.7949 11.734 12.8316 11.7094 12.8719 11.6926C12.9123 11.6758 12.9556 11.6671 12.9993 11.667C13.0431 11.6669 13.0864 11.6754 13.1268 11.6921C13.1673 11.7087 13.204 11.7332 13.235 11.764M18.57 11.764C18.601 11.795 18.6256 11.8317 18.6424 11.8721C18.6592 11.9126 18.6679 11.9559 18.6679 11.9997C18.668 12.0435 18.6594 12.0868 18.6427 12.1273C18.626 12.1678 18.6015 12.2045 18.5705 12.2355C18.5396 12.2665 18.5029 12.2911 18.4624 12.3079C18.422 12.3247 18.3787 12.3334 18.3349 12.3334C18.2911 12.3335 18.2477 12.3249 18.2073 12.3082C18.1668 12.2915 18.13 12.267 18.099 12.236C18.0364 12.1737 18.0012 12.0891 18.001 12.0007C18.0008 11.9124 18.0357 11.8276 18.098 11.765C18.1604 11.7024 18.245 11.6672 18.3333 11.667C18.4217 11.6668 18.5064 11.7017 18.569 11.764M7.90303 11.764C7.93402 11.795 7.95862 11.8317 7.97542 11.8721C7.99222 11.9126 8.00089 11.9559 8.00093 11.9997C8.00098 12.0435 7.9924 12.0868 7.97569 12.1273C7.95898 12.1678 7.93446 12.2045 7.90353 12.2355C7.87261 12.2665 7.83588 12.2911 7.79545 12.3079C7.75501 12.3247 7.71167 12.3334 7.66789 12.3334C7.6241 12.3335 7.58074 12.3249 7.54027 12.3082C7.4998 12.2915 7.46302 12.267 7.43203 12.236C7.36944 12.1737 7.33417 12.0891 7.33399 12.0007C7.3338 11.9124 7.36871 11.8276 7.43103 11.765C7.49336 11.7024 7.578 11.6672 7.66633 11.667C7.75465 11.6668 7.83944 11.7017 7.90203 11.764" stroke="#7601E0" stroke-width="1.5" stroke-linecap="round" stroke-linejoin="round"/>
</svg>
