<svg width="26" height="26" viewBox="0 0 26 26" fill="none" xmlns="http://www.w3.org/2000/svg">
<path d="M15.701 19.5649V22.6669C15.701 23.0012 15.7941 23.3289 15.9699 23.6133C16.1456 23.8976 16.3971 24.1274 16.696 24.2769L17.392 24.6249C17.892 24.8747 18.4432 25.0048 19.0021 25.0048C19.5609 25.0048 20.1121 24.8747 20.612 24.6249L21.309 24.2769C21.608 24.1274 21.8595 23.8976 22.0352 23.6133C22.211 23.3289 22.3041 23.0012 22.3041 22.6669V19.5649" stroke="#7601E0" stroke-width="1.5" stroke-linecap="round" stroke-linejoin="round"/>
<path d="M13.55 18.4901L17.669 20.5471C18.511 20.9671 19.502 20.9671 20.344 20.5471L24.458 18.4901C24.6237 18.4075 24.7632 18.2803 24.8607 18.1228C24.9582 17.9653 25.0098 17.7838 25.0098 17.5986C25.0098 17.4133 24.9582 17.2318 24.8607 17.0743C24.7632 16.9168 24.6237 16.7896 24.458 16.7071L20.336 14.6501C19.9207 14.4423 19.4628 14.3341 18.9985 14.3341C18.5341 14.3341 18.0762 14.4423 17.661 14.6501L13.547 16.7071C13.3814 16.79 13.2422 16.9175 13.145 17.0752C13.0479 17.2329 12.9967 17.4146 12.9971 17.5998C12.9975 17.785 13.0495 17.9664 13.1474 18.1237C13.2452 18.281 13.385 18.4078 13.551 18.4901H13.55Z" stroke="#7601E0" stroke-width="1.5" stroke-linecap="round" stroke-linejoin="round"/>
<path d="M23.671 11.666V3.663C23.671 2.9554 23.3899 2.27678 22.8896 1.77643C22.3892 1.27609 21.7106 0.994995 21.003 0.994995H3.663C2.9554 0.994995 2.27678 1.27609 1.77643 1.77643C1.27609 2.27678 0.994995 2.9554 0.994995 3.663V19.67C0.99526 20.3774 1.27647 21.0558 1.77679 21.5559C2.27711 22.056 2.95557 22.337 3.663 22.337H11.666" stroke="#9927FF" stroke-width="1.5" stroke-linecap="round" stroke-linejoin="round"/>
<path d="M9.332 11.6659H13M9.332 6.49694H18.336M5.163 11.8329C5.18595 11.8347 5.20902 11.8317 5.23076 11.8242C5.2525 11.8166 5.27245 11.8046 5.28934 11.789C5.30624 11.7734 5.31971 11.7544 5.32893 11.7333C5.33815 11.7122 5.34291 11.6895 5.34291 11.6664C5.34291 11.6434 5.33815 11.6207 5.32893 11.5996C5.31971 11.5785 5.30624 11.5595 5.28934 11.5439C5.27245 11.5282 5.2525 11.5163 5.23076 11.5087C5.20902 11.5011 5.18595 11.4982 5.163 11.4999C5.12107 11.5032 5.08191 11.5221 5.05334 11.553C5.02478 11.5839 5.00891 11.6244 5.00891 11.6664C5.00891 11.7085 5.02478 11.749 5.05334 11.7799C5.08191 11.8107 5.12107 11.8297 5.163 11.8329M5.163 6.66394C5.18595 6.66572 5.20902 6.66274 5.23076 6.65518C5.2525 6.64762 5.27245 6.63565 5.28934 6.62001C5.30624 6.60438 5.31971 6.58542 5.32893 6.56433C5.33815 6.54323 5.34291 6.52046 5.34291 6.49744C5.34291 6.47443 5.33815 6.45165 5.32893 6.43056C5.31971 6.40947 5.30624 6.39051 5.28934 6.37488C5.27245 6.35924 5.2525 6.34727 5.23076 6.33971C5.20902 6.33215 5.18595 6.32916 5.163 6.33094C5.12107 6.3342 5.08191 6.35315 5.05334 6.38401C5.02478 6.41488 5.00891 6.45539 5.00891 6.49744C5.00891 6.5395 5.02478 6.58001 5.05334 6.61087C5.08191 6.64174 5.12107 6.66069 5.163 6.66394M25.005 17.5979V19.9989" stroke="#7601E0" stroke-width="1.5" stroke-linecap="round" stroke-linejoin="round"/>
</svg>
