<svg width="18" height="18" viewBox="0 0 18 18" fill="none" xmlns="http://www.w3.org/2000/svg">
<path d="M3.66699 14.852C5.09687 13.451 7.01822 12.6654 9.01999 12.663C11.002 12.6656 12.906 13.4354 14.333 14.811C12.9031 16.2119 10.9818 16.9976 8.97999 17C6.92899 17 5.06199 16.182 3.66799 14.851L3.66699 14.852Z" stroke="#7601E0" stroke-width="1.5" stroke-linecap="round" stroke-linejoin="round"/>
<path d="M1.867 12.578C1.3016 11.4698 1.00461 10.2441 1 9C1 4.579 4.579 1 9 1C13.421 1 17 4.579 17 9C16.9966 10.2438 16.6992 11.4691 16.132 12.576" stroke="#7601E0" stroke-width="1.5" stroke-linecap="round" stroke-linejoin="round"/>
<path d="M10.886 5.33702C11.1415 5.58291 11.3453 5.87728 11.4857 6.2029C11.626 6.52853 11.7 6.87887 11.7034 7.23343C11.7067 7.588 11.6393 7.93967 11.5051 8.26788C11.3709 8.59609 11.1727 8.89425 10.9219 9.14491C10.6711 9.39557 10.3728 9.5937 10.0445 9.72772C9.71625 9.86174 9.36454 9.92895 9.00997 9.92542C8.65541 9.92189 8.30511 9.8477 7.97956 9.70717C7.65401 9.56665 7.35975 9.36262 7.11399 9.10702C6.62995 8.60359 6.36269 7.93037 6.36964 7.23202C6.37659 6.53367 6.65719 5.8659 7.15115 5.3722C7.64512 4.8785 8.31303 4.59825 9.01139 4.59167C9.70974 4.58509 10.3828 4.85271 10.886 5.33702Z" stroke="#7601E0" stroke-width="1.5" stroke-linecap="round" stroke-linejoin="round"/>
</svg>
