<svg width="20" height="20" viewBox="0 0 20 20" fill="none" xmlns="http://www.w3.org/2000/svg">
<path d="M9.99901 6.14706C9.49296 6.14706 8.99187 6.24673 8.52434 6.44039C8.05681 6.63404 7.632 6.91789 7.27417 7.27572C6.91634 7.63355 6.63249 8.05836 6.43884 8.52589C6.24518 8.99341 6.14551 9.49451 6.14551 10.0006C6.14551 10.5066 6.24518 11.0077 6.43884 11.4752C6.63249 11.9428 6.91634 12.3676 7.27417 12.7254C7.632 13.0832 8.05681 13.3671 8.52434 13.5607C8.99187 13.7544 9.49296 13.8541 9.99901 13.8541C11.021 13.8541 12.0012 13.4481 12.7238 12.7254C13.4465 12.0027 13.8525 11.0226 13.8525 10.0006C13.8525 8.97854 13.4465 7.99839 12.7238 7.27572C12.0012 6.55305 11.021 6.14706 9.99901 6.14706ZM9.99901 12.5031C9.33517 12.5031 8.69852 12.2393 8.22912 11.7699C7.75972 11.3005 7.49601 10.6639 7.49601 10.0001C7.49601 9.33622 7.75972 8.69957 8.22912 8.23017C8.69852 7.76076 9.33517 7.49706 9.99901 7.49706C10.6628 7.49706 11.2995 7.76076 11.7689 8.23017C12.2383 8.69957 12.502 9.33622 12.502 10.0001C12.502 10.6639 12.2383 11.3005 11.7689 11.7699C11.2995 12.2393 10.6628 12.5031 9.99901 12.5031ZM14.005 6.90406C14.2433 6.90406 14.4718 6.80939 14.6403 6.64089C14.8088 6.47239 14.9035 6.24385 14.9035 6.00556C14.9035 5.76726 14.8088 5.53872 14.6403 5.37022C14.4718 5.20172 14.2433 5.10706 14.005 5.10706C13.7667 5.10706 13.5382 5.20172 13.3697 5.37022C13.2012 5.53872 13.1065 5.76726 13.1065 6.00556C13.1065 6.24385 13.2012 6.47239 13.3697 6.64089C13.5382 6.80939 13.7667 6.90406 14.005 6.90406Z" fill="#9827FF"/>
<path d="M17.111 5.092C16.9179 4.5941 16.623 4.14197 16.2452 3.76452C15.8674 3.38708 15.415 3.09263 14.917 2.9C14.3338 2.68112 13.7177 2.56277 13.095 2.55C12.293 2.515 12.039 2.505 10.004 2.505C7.96895 2.505 7.70795 2.505 6.91195 2.55C6.28978 2.56214 5.67425 2.68051 5.09195 2.9C4.59362 3.09247 4.14102 3.38698 3.76319 3.76464C3.38536 4.14229 3.09065 4.59476 2.89795 5.093C2.67871 5.67607 2.56035 6.29221 2.54795 6.915C2.51295 7.717 2.50195 7.971 2.50195 10.007C2.50195 12.042 2.50195 12.301 2.54895 13.098C2.56095 13.722 2.67895 14.337 2.89795 14.921C3.09119 15.4191 3.38621 15.8714 3.76416 16.249C4.14211 16.6266 4.59468 16.9212 5.09295 17.114C5.67388 17.3416 6.28937 17.4684 6.91295 17.489C7.71595 17.524 7.96995 17.535 10.005 17.535C12.04 17.535 12.301 17.535 13.097 17.489C13.7196 17.4764 14.3357 17.3584 14.919 17.14C15.417 16.9468 15.8693 16.6519 16.2471 16.2741C16.6248 15.8964 16.9197 15.4441 17.113 14.946C17.3321 14.3629 17.4501 13.7468 17.462 13.124C17.498 12.323 17.509 12.069 17.509 10.033C17.509 7.997 17.509 7.738 17.462 6.941C17.4526 6.30944 17.3342 5.68425 17.112 5.093L17.111 5.092ZM16.096 13.036C16.091 13.516 16.003 13.992 15.837 14.443C15.7116 14.7669 15.5199 15.061 15.2741 15.3064C15.0284 15.5518 14.734 15.7431 14.41 15.868C13.9646 16.0336 13.4941 16.1216 13.019 16.128C12.227 16.164 12.004 16.173 9.97395 16.173C7.94195 16.173 7.73395 16.173 6.92795 16.128C6.45279 16.122 5.98222 16.034 5.53695 15.868C5.2117 15.7439 4.91609 15.553 4.66925 15.3076C4.42241 15.0621 4.22983 14.7676 4.10395 14.443C3.94021 13.9971 3.85265 13.5269 3.84495 13.052C3.80895 12.26 3.80095 12.037 3.80095 10.007C3.80095 7.976 3.80095 7.768 3.84495 6.961C3.85095 6.481 3.93795 6.005 4.10495 5.555C4.23054 5.23021 4.42288 4.93538 4.66955 4.68957C4.91622 4.44376 5.21172 4.25245 5.53695 4.128C5.98219 3.96327 6.45226 3.87568 6.92695 3.869C7.71995 3.833 7.94295 3.823 9.97395 3.823C12.004 3.823 12.213 3.823 13.019 3.869C13.4941 3.875 13.9647 3.96296 14.41 4.129C14.7341 4.25409 15.0285 4.44557 15.2742 4.69115C15.52 4.93672 15.7116 5.23097 15.837 5.555C16.001 6.001 16.088 6.471 16.097 6.945C16.132 7.738 16.141 7.961 16.141 9.992C16.141 12.022 16.141 12.24 16.105 13.037H16.096V13.036Z" fill="#9827FF"/>
</svg>
