<svg width="28" height="26" viewBox="0 0 28 26" fill="none" xmlns="http://www.w3.org/2000/svg">
<g clip-path="url(#clip0_143_227)">
<path d="M10.937 2.46003L2.70497 7.03303C0.974971 7.99503 0.974971 10.483 2.70497 11.444L10.937 16.017C11.874 16.5373 12.9282 16.8103 14 16.8103C15.0718 16.8103 16.1259 16.5373 17.063 16.017L25.295 11.444C27.025 10.483 27.025 7.99403 25.295 7.03403L17.063 2.46003C16.1259 1.93976 15.0718 1.66675 14 1.66675C12.9282 1.66675 11.874 1.93976 10.937 2.46003V2.46003Z" stroke="#7601E0" stroke-width="1.5" stroke-linecap="round" stroke-linejoin="round"/>
<path d="M5.98499 13.267V18.499C5.98499 19.764 6.61899 20.944 7.67099 21.644L9.81298 23.069C11.0525 23.8933 12.5079 24.333 13.9965 24.333C15.4851 24.333 16.9405 23.8933 18.18 23.069L20.323 21.644C20.8413 21.2993 21.2664 20.8317 21.5604 20.283C21.8544 19.7343 22.0081 19.1215 22.008 18.499V13.267" stroke="#9927FF" stroke-width="1.5" stroke-linecap="round" stroke-linejoin="round"/>
</g>
<defs>
<clipPath id="clip0_143_227">
<rect width="28" height="26" fill="white"/>
</clipPath>
</defs>
</svg>
