<svg width="13" height="18" viewBox="0 0 13 18" fill="none" xmlns="http://www.w3.org/2000/svg">
<path d="M4.5 1V2.8C4.5 3.131 4.724 3.4 5 3.4H8C8.276 3.4 8.5 3.131 8.5 2.8V1M5.38 14.5H7.62" stroke="#7601E0" stroke-width="1.5" stroke-linecap="round" stroke-linejoin="round"/>
<path d="M3.5 1H9.5C10.0304 1 10.5391 1.21071 10.9142 1.58579C11.2893 1.96086 11.5 2.46957 11.5 3V15C11.5 15.5304 11.2893 16.0391 10.9142 16.4142C10.5391 16.7893 10.0304 17 9.5 17H3.5C2.96957 17 2.46086 16.7893 2.08579 16.4142C1.71071 16.0391 1.5 15.5304 1.5 15V3C1.5 2.46957 1.71071 1.96086 2.08579 1.58579C2.46086 1.21071 2.96957 1 3.5 1Z" stroke="#7601E0" stroke-width="1.5" stroke-linecap="round" stroke-linejoin="round"/>
</svg>
