<svg width="20" height="20" viewBox="0 0 20 20" fill="none" xmlns="http://www.w3.org/2000/svg">
<path d="M16.3232 5.57435C15.4925 5.39168 14.741 4.95055 14.1766 4.31426C13.6121 3.67797 13.2638 2.87924 13.1815 2.03268V1.66602H10.3065V13.0577C10.3071 13.5632 10.1486 14.056 9.85353 14.4664C9.55846 14.8768 9.14173 15.1839 8.66239 15.3443C8.18304 15.5047 7.66538 15.5102 7.18273 15.3601C6.70008 15.2099 6.27691 14.9117 5.97317 14.5077C5.70104 14.1501 5.53441 13.7234 5.49211 13.276C5.44981 12.8286 5.53354 12.3783 5.73382 11.976C5.9341 11.5737 6.24294 11.2355 6.62543 10.9996C7.00791 10.7636 7.44878 10.6394 7.89817 10.641C8.1467 10.6396 8.39399 10.6761 8.6315 10.7493V7.83268C8.35511 7.79845 8.07659 7.78453 7.79817 7.79102C6.77259 7.81842 5.77727 8.1443 4.93407 8.72874C4.09088 9.31318 3.43641 10.1308 3.05081 11.0816C2.66522 12.0323 2.56523 13.0748 2.7631 14.0815C2.96096 15.0882 3.44809 16.0153 4.16483 16.7493C4.89941 17.4962 5.83941 18.0078 6.86541 18.2192C7.89141 18.4306 8.95709 18.3322 9.92705 17.9365C10.897 17.5408 11.7274 16.8658 12.3129 15.9971C12.8983 15.1284 13.2122 14.1052 13.2148 13.0577V7.22435C14.3744 8.05264 15.7648 8.49572 17.1898 8.49102V5.65768C16.9099 5.65884 16.6306 5.63091 16.3565 5.57435H16.3232Z" fill="#9827FF"/>
</svg>
