<svg width="18" height="12" viewBox="0 0 18 12" fill="none" xmlns="http://www.w3.org/2000/svg">
<g clip-path="url(#clip0_143_257)">
<path d="M16.994 2.003C16.8994 1.65062 16.714 1.32919 16.4565 1.07074C16.1989 0.812295 15.8781 0.625856 15.526 0.530003C14.221 0.173003 9.00003 0.167003 9.00003 0.167003C9.00003 0.167003 3.78003 0.160003 2.47403 0.503003C2.12237 0.603225 1.80238 0.792168 1.54478 1.05169C1.28718 1.31122 1.10063 1.63261 1.00303 1.985C0.65903 3.29 0.65503 5.997 0.65503 5.997C0.65503 5.997 0.65203 8.717 0.99403 10.008C1.08908 10.3601 1.27471 10.6812 1.53244 10.9393C1.79018 11.1974 2.11102 11.3835 2.46303 11.479C3.78103 11.838 8.98803 11.843 8.98803 11.843C8.98803 11.843 14.208 11.849 15.514 11.508C15.8661 11.4122 16.187 11.2262 16.4452 10.9684C16.7033 10.7106 16.8897 10.3899 16.986 10.038C17.331 8.734 17.334 6.028 17.334 6.028C17.334 6.028 17.35 3.308 16.994 2.003ZM7.33003 8.504L7.33403 3.504L11.674 6.008L7.33003 8.504Z" fill="#9827FF"/>
</g>
<defs>
<clipPath id="clip0_143_257">
<rect width="18" height="12" fill="white"/>
</clipPath>
</defs>
</svg>
